<?xml version="1.0" encoding="UTF-8"?>
<svg version="1.1" xmlns="http://www.w3.org/2000/svg" width="128" height="128">
<path d="M0 0 C1.26170013 -0.01691895 1.26170013 -0.01691895 2.54888916 -0.03417969 C3.46329773 -0.02608276 4.3777063 -0.01798584 5.31982422 -0.00964355 C6.28934021 -0.01665283 7.2588562 -0.02366211 8.25775146 -0.03088379 C11.46362927 -0.04849398 14.66862488 -0.03682995 17.87451172 -0.02331543 C20.1012387 -0.02600946 22.32796455 -0.02989114 24.5546875 -0.03491211 C29.22195636 -0.04081127 33.88891906 -0.03223047 38.55615234 -0.0135498 C44.5420468 0.00923965 50.52722391 -0.00388115 56.51309204 -0.02783966 C61.11130184 -0.04228614 65.70934125 -0.03769686 70.30755615 -0.02732849 C72.51479171 -0.02465804 74.72204269 -0.02794211 76.92926025 -0.0372467 C80.01299073 -0.04739305 83.09555567 -0.03193727 86.17919922 -0.00964355 C87.09360779 -0.01774048 88.00801636 -0.0258374 88.95013428 -0.03417969 C89.7912677 -0.02290039 90.63240112 -0.01162109 91.49902344 0 C92.22757538 0.0015081 92.95612732 0.0030162 93.70675659 0.00457001 C96.68866535 0.73935568 97.88983389 2.10567765 99.74951172 4.50793457 C100.25287628 6.86303711 100.25287628 6.86303711 100.25744629 9.5177002 C100.26872559 10.5271167 100.28000488 11.5365332 100.29162598 12.57653809 C100.28352905 13.67796143 100.27543213 14.77938477 100.26708984 15.91418457 C100.27409912 17.07877197 100.2811084 18.24335938 100.28833008 19.4432373 C100.30595604 23.2983779 100.29427013 27.15278631 100.28076172 31.00793457 C100.28345529 33.6830741 100.28733025 36.35819126 100.2923584 39.0333252 C100.29963369 44.64213007 100.29005043 50.2507242 100.27099609 55.85949707 C100.24922729 62.34211364 100.25627877 68.82422699 100.27830172 75.30683136 C100.29645931 80.87470046 100.29901238 86.44241816 100.28854704 92.01030731 C100.28231394 95.33489127 100.2830437 98.65918709 100.29469299 101.98376465 C100.3048292 105.69008614 100.28939657 109.39543564 100.26708984 113.10168457 C100.27518677 114.20310791 100.28328369 115.30453125 100.29162598 116.43933105 C100.27470703 117.95345581 100.27470703 117.95345581 100.25744629 119.49816895 C100.25593819 120.37420776 100.25443008 121.25024658 100.25287628 122.15283203 C99.57067866 125.34464463 98.31080218 126.53743189 95.74951172 128.50793457 C93.70675659 129.01129913 93.70675659 129.01129913 91.49902344 129.01586914 C90.65789001 129.02714844 89.81675659 129.03842773 88.95013428 129.05004883 C88.03572571 129.0419519 87.12131714 129.03385498 86.17919922 129.0255127 C85.20968323 129.03252197 84.24016724 129.03953125 83.24127197 129.04675293 C80.03539417 129.06436312 76.83039855 129.05269909 73.62451172 129.03918457 C71.39778473 129.0418786 69.17105889 129.04576028 66.94433594 129.05078125 C62.27706708 129.05668041 57.61010438 129.04809961 52.94287109 129.02941895 C46.95697663 129.00662949 40.97179953 129.01975029 34.9859314 129.0437088 C30.3877216 129.05815528 25.78968218 129.053566 21.19146729 129.04319763 C18.98423172 129.04052718 16.77698075 129.04381125 14.56976318 129.05311584 C11.48603271 129.06326219 8.40346777 129.04780641 5.31982422 129.0255127 C4.40541565 129.03360962 3.49100708 129.04170654 2.54888916 129.05004883 C1.70775574 129.03876953 0.86662231 129.02749023 0 129.01586914 C-0.72855194 129.01436104 -1.45710388 129.01285294 -2.20773315 129.01129913 C-5.18964191 128.27651346 -6.39081045 126.91019149 -8.25048828 124.50793457 C-8.75385284 122.15283203 -8.75385284 122.15283203 -8.75842285 119.49816895 C-8.7753418 117.98404419 -8.7753418 117.98404419 -8.79260254 116.43933105 C-8.78045715 114.78719604 -8.78045715 114.78719604 -8.76806641 113.10168457 C-8.77507568 111.93709717 -8.78208496 110.77250977 -8.78930664 109.57263184 C-8.8069326 105.71749124 -8.79524669 101.86308283 -8.78173828 98.00793457 C-8.78443186 95.33279504 -8.78830681 92.65767788 -8.79333496 89.98254395 C-8.80061025 84.37373907 -8.79102699 78.76514494 -8.77197266 73.15637207 C-8.75020385 66.6737555 -8.75725533 60.19164215 -8.77927828 53.70903778 C-8.79743587 48.14116868 -8.79998894 42.57345098 -8.7895236 37.00556183 C-8.7832905 33.68097787 -8.78402026 30.35668205 -8.79566956 27.03210449 C-8.80580576 23.325783 -8.79037313 19.6204335 -8.76806641 15.91418457 C-8.77616333 14.81276123 -8.78426025 13.71133789 -8.79260254 12.57653809 C-8.78132324 11.56712158 -8.77004395 10.55770508 -8.75842285 9.5177002 C-8.75691475 8.64166138 -8.75540665 7.76562256 -8.75385284 6.86303711 C-7.74238792 2.13067453 -4.69243533 0.00971334 0 0 Z " fill="#35495C" transform="translate(18.25048828125,-0.5079345703125)"/>
<path d="M0 0 C30.36 0 60.72 0 92 0 C92 12.87 92 25.74 92 39 C90.16881916 40.83118084 87.61232955 40.12645259 85.1751709 40.13552856 C84.33877075 40.13350433 83.50237061 40.1314801 82.640625 40.12939453 C81.76426392 40.13114685 80.88790283 40.13289917 79.98498535 40.13470459 C77.07330373 40.13912432 74.1616823 40.13618469 71.25 40.1328125 C69.23600248 40.1334855 67.22200505 40.1344555 65.20800781 40.13571167 C60.98111195 40.13718881 56.75423717 40.13503358 52.52734375 40.13037109 C47.09619468 40.1246738 41.66509501 40.12795272 36.23394775 40.13394356 C32.07340113 40.13754874 27.91286631 40.13641078 23.75231934 40.13381577 C21.74914545 40.13314638 19.74597051 40.13397533 17.74279785 40.13629532 C14.94829448 40.13882115 12.15387229 40.13498224 9.359375 40.12939453 C8.52297485 40.13141876 7.68657471 40.13344299 6.8248291 40.13552856 C1.11426242 40.11426242 1.11426242 40.11426242 0 39 C0 26.13 0 13.26 0 0 Z " fill="#88C662" transform="translate(18,10)"/>
<path d="M0 0 C0.66 0 1.32 0 2 0 C2.09343118 15.05537042 2.16397317 30.11071838 2.20724869 45.16631699 C2.22787618 52.156875 2.25600001 59.1472529 2.30175781 66.13769531 C2.34587654 72.88094822 2.36912245 79.62397514 2.37950897 86.36737823 C2.38691302 88.9430664 2.40137091 91.51874406 2.42292023 94.09435272 C2.45185884 97.69561605 2.45595985 101.29610048 2.45410156 104.89746094 C2.46848267 105.9677655 2.48286377 107.03807007 2.49768066 108.14080811 C2.45837595 115.15691566 2.45837595 115.15691566 0.55078125 118.66552734 C-3.35227291 120.70745824 -6.92358608 120.52481149 -11.26660156 120.45410156 C-12.20352844 120.45468567 -13.14045532 120.45526978 -14.10577393 120.45587158 C-17.20110181 120.45308596 -20.29546545 120.42197092 -23.390625 120.390625 C-25.53724644 120.38316432 -27.68387469 120.37747057 -29.83050537 120.37347412 C-35.47939876 120.35820425 -41.12788053 120.31891038 -46.77661133 120.2746582 C-52.54112174 120.23373492 -58.30569869 120.21546937 -64.0703125 120.1953125 C-75.38038915 120.15241776 -86.69016034 120.08414974 -98 120 C-97.34 118.68 -96.68 117.36 -96 116 C-94.8496376 115.98969254 -93.69927521 115.97938507 -92.51405334 115.96876526 C-81.69794341 115.87120916 -70.8818933 115.76849244 -60.06588078 115.66066074 C-54.50463451 115.60538471 -48.94338304 115.55195737 -43.38208008 115.50268555 C-38.0198791 115.45511085 -32.65774427 115.40277082 -27.29562187 115.34705925 C-25.24501622 115.32660435 -23.19439241 115.30789658 -21.14375496 115.29092598 C-18.2820488 115.26695112 -15.42046893 115.2368875 -12.55883789 115.20532227 C-11.70216522 115.1995668 -10.84549255 115.19381134 -9.96286011 115.18788147 C-6.17325025 115.50510072 -6.17325025 115.50510072 -3 114 C-2.89662051 112.54996299 -2.86205388 111.09495216 -2.85523987 109.64125061 C-2.84834137 108.70038101 -2.84144287 107.75951141 -2.83433533 106.79013062 C-2.83172195 105.74958527 -2.82910858 104.70903992 -2.82641602 103.63696289 C-2.8163855 102.00296288 -2.8163855 102.00296288 -2.80615234 100.33595276 C-2.79206467 97.9617991 -2.78018259 95.5876316 -2.77020454 93.21345711 C-2.75385819 89.46162517 -2.730624 85.70989607 -2.70530701 81.95811462 C-2.63434909 71.2879623 -2.57428318 60.61777371 -2.52319336 49.94750977 C-2.49190357 43.43000557 -2.45022216 36.91260884 -2.40299797 30.39520073 C-2.38693207 27.90443466 -2.37463188 25.41364145 -2.36609077 22.92283821 C-2.353996 19.44591394 -2.32987116 15.96926829 -2.30297852 12.49243164 C-2.30238937 11.45391052 -2.30180023 10.4153894 -2.30119324 9.34539795 C-2.29147491 8.40170853 -2.28175659 7.4580191 -2.27174377 6.48573303 C-2.26751184 5.66294892 -2.2632799 4.84016481 -2.25891972 3.99244785 C-2 2 -2 2 0 0 Z " fill="#123247" transform="translate(116,8)"/>
<path d="M0 0 C1.1653125 -0.00128906 2.330625 -0.00257812 3.53125 -0.00390625 C4.7584375 -0.00003906 5.985625 0.00382812 7.25 0.0078125 C9.09078125 0.00201172 9.09078125 0.00201172 10.96875 -0.00390625 C12.71671875 -0.00197266 12.71671875 -0.00197266 14.5 0 C15.57765625 0.00112793 16.6553125 0.00225586 17.765625 0.00341797 C20.25 0.1328125 20.25 0.1328125 21.25 1.1328125 C21.34971786 3.04739532 21.38080589 4.96563567 21.3828125 6.8828125 C21.38474609 8.63078125 21.38474609 8.63078125 21.38671875 10.4140625 C21.38285156 11.64125 21.37898438 12.8684375 21.375 14.1328125 C21.38080078 15.97359375 21.38080078 15.97359375 21.38671875 17.8515625 C21.38542969 19.016875 21.38414063 20.1821875 21.3828125 21.3828125 C21.38168457 22.46046875 21.38055664 23.538125 21.37939453 24.6484375 C21.25 27.1328125 21.25 27.1328125 20.25 28.1328125 C18.33541718 28.23253036 16.41717683 28.26361839 14.5 28.265625 C13.3346875 28.26691406 12.169375 28.26820312 10.96875 28.26953125 C9.7415625 28.26566406 8.514375 28.26179688 7.25 28.2578125 C5.40921875 28.26361328 5.40921875 28.26361328 3.53125 28.26953125 C2.3659375 28.26824219 1.200625 28.26695313 0 28.265625 C-1.07765625 28.26449707 -2.1553125 28.26336914 -3.265625 28.26220703 C-5.75 28.1328125 -5.75 28.1328125 -6.75 27.1328125 C-6.84971786 25.21822968 -6.88080589 23.29998933 -6.8828125 21.3828125 C-6.88410156 20.2175 -6.88539062 19.0521875 -6.88671875 17.8515625 C-6.88285156 16.624375 -6.87898438 15.3971875 -6.875 14.1328125 C-6.87886719 12.905625 -6.88273437 11.6784375 -6.88671875 10.4140625 C-6.88542969 9.24875 -6.88414063 8.0834375 -6.8828125 6.8828125 C-6.88168457 5.80515625 -6.88055664 4.7275 -6.87939453 3.6171875 C-6.6362729 -1.05074778 -4.09391107 0.00428489 0 0 Z " fill="#AFC3D8" transform="translate(88.75,89.8671875)"/>
<path d="M0 0 C1.1653125 -0.00128906 2.330625 -0.00257812 3.53125 -0.00390625 C4.7584375 -0.00003906 5.985625 0.00382812 7.25 0.0078125 C9.09078125 0.00201172 9.09078125 0.00201172 10.96875 -0.00390625 C12.71671875 -0.00197266 12.71671875 -0.00197266 14.5 0 C15.57765625 0.00112793 16.6553125 0.00225586 17.765625 0.00341797 C20.25 0.1328125 20.25 0.1328125 21.25 1.1328125 C21.34971786 3.04739532 21.38080589 4.96563567 21.3828125 6.8828125 C21.38474609 8.63078125 21.38474609 8.63078125 21.38671875 10.4140625 C21.38285156 11.64125 21.37898438 12.8684375 21.375 14.1328125 C21.38080078 15.97359375 21.38080078 15.97359375 21.38671875 17.8515625 C21.38542969 19.016875 21.38414063 20.1821875 21.3828125 21.3828125 C21.38168457 22.46046875 21.38055664 23.538125 21.37939453 24.6484375 C21.25 27.1328125 21.25 27.1328125 20.25 28.1328125 C18.33541718 28.23253036 16.41717683 28.26361839 14.5 28.265625 C13.3346875 28.26691406 12.169375 28.26820312 10.96875 28.26953125 C9.7415625 28.26566406 8.514375 28.26179688 7.25 28.2578125 C5.40921875 28.26361328 5.40921875 28.26361328 3.53125 28.26953125 C2.3659375 28.26824219 1.200625 28.26695313 0 28.265625 C-1.07765625 28.26449707 -2.1553125 28.26336914 -3.265625 28.26220703 C-5.75 28.1328125 -5.75 28.1328125 -6.75 27.1328125 C-6.84971786 25.21822968 -6.88080589 23.29998933 -6.8828125 21.3828125 C-6.88410156 20.2175 -6.88539062 19.0521875 -6.88671875 17.8515625 C-6.88285156 16.624375 -6.87898438 15.3971875 -6.875 14.1328125 C-6.87886719 12.905625 -6.88273437 11.6784375 -6.88671875 10.4140625 C-6.88542969 9.24875 -6.88414063 8.0834375 -6.8828125 6.8828125 C-6.88168457 5.80515625 -6.88055664 4.7275 -6.87939453 3.6171875 C-6.6362729 -1.05074778 -4.09391107 0.00428489 0 0 Z " fill="#DD3743" transform="translate(88.75,57.8671875)"/>
<path d="M0 0 C1.084021 0.00523682 2.16804199 0.01047363 3.28491211 0.01586914 C5.03964844 0.02070312 5.03964844 0.02070312 6.82983398 0.02563477 C8.67738281 0.03820312 8.67738281 0.03820312 10.56225586 0.05102539 C12.41560547 0.05779297 12.41560547 0.05779297 14.30639648 0.06469727 C17.37089703 0.07652931 20.43530307 0.09301366 23.49975586 0.11352539 C23.82975586 0.77352539 24.15975586 1.43352539 24.49975586 2.11352539 C23.50975586 2.77352539 22.51975586 3.43352539 21.49975586 4.11352539 C20.99273069 6.23459334 20.99273069 6.23459334 20.98803711 8.68383789 C20.95258789 9.57973633 20.91713867 10.47563477 20.88061523 11.39868164 C20.85805664 12.33583008 20.83549805 13.27297852 20.81225586 14.23852539 C20.7780957 15.1834082 20.74393555 16.12829102 20.70874023 17.10180664 C20.62611473 19.43892792 20.55701598 21.7756673 20.49975586 24.11352539 C19.90960693 24.12810791 19.31945801 24.14269043 18.71142578 24.15771484 C16.03604356 24.23221383 13.36190694 24.32886534 10.68725586 24.42602539 C9.29410156 24.45986328 9.29410156 24.45986328 7.87280273 24.49438477 C6.98012695 24.52983398 6.08745117 24.5652832 5.16772461 24.60180664 C4.34554443 24.62799072 3.52336426 24.6541748 2.67626953 24.68115234 C0.07369054 25.19816495 -0.83935131 26.09555234 -2.50024414 28.11352539 C-4.27474008 26.33902945 -3.63054486 23.76335278 -3.63305664 21.36352539 C-3.6343457 20.19821289 -3.63563477 19.03290039 -3.63696289 17.83227539 C-3.6330957 16.60508789 -3.62922852 15.37790039 -3.62524414 14.11352539 C-3.62911133 12.88633789 -3.63297852 11.65915039 -3.63696289 10.39477539 C-3.63567383 9.22946289 -3.63438477 8.06415039 -3.63305664 6.86352539 C-3.63192871 5.78586914 -3.63080078 4.70821289 -3.62963867 3.59790039 C-3.45482772 0.24153021 -3.35976473 0.15255254 0 0 Z " fill="#5C7282" transform="translate(53.500244140625,89.886474609375)"/>
<path d="M0 0 C1.084021 0.00523682 2.16804199 0.01047363 3.28491211 0.01586914 C5.03964844 0.02070312 5.03964844 0.02070312 6.82983398 0.02563477 C8.67738281 0.03820312 8.67738281 0.03820312 10.56225586 0.05102539 C12.41560547 0.05779297 12.41560547 0.05779297 14.30639648 0.06469727 C17.37089703 0.07652931 20.43530307 0.09301366 23.49975586 0.11352539 C23.82975586 0.77352539 24.15975586 1.43352539 24.49975586 2.11352539 C23.50975586 2.77352539 22.51975586 3.43352539 21.49975586 4.11352539 C20.99273069 6.23459334 20.99273069 6.23459334 20.98803711 8.68383789 C20.95258789 9.57973633 20.91713867 10.47563477 20.88061523 11.39868164 C20.85805664 12.33583008 20.83549805 13.27297852 20.81225586 14.23852539 C20.7780957 15.1834082 20.74393555 16.12829102 20.70874023 17.10180664 C20.62611473 19.43892792 20.55701598 21.7756673 20.49975586 24.11352539 C19.90960693 24.12810791 19.31945801 24.14269043 18.71142578 24.15771484 C16.03604356 24.23221383 13.36190694 24.32886534 10.68725586 24.42602539 C9.29410156 24.45986328 9.29410156 24.45986328 7.87280273 24.49438477 C6.98012695 24.52983398 6.08745117 24.5652832 5.16772461 24.60180664 C4.34554443 24.62799072 3.52336426 24.6541748 2.67626953 24.68115234 C0.07369054 25.19816495 -0.83935131 26.09555234 -2.50024414 28.11352539 C-4.27474008 26.33902945 -3.63054486 23.76335278 -3.63305664 21.36352539 C-3.6343457 20.19821289 -3.63563477 19.03290039 -3.63696289 17.83227539 C-3.6330957 16.60508789 -3.62922852 15.37790039 -3.62524414 14.11352539 C-3.62911133 12.88633789 -3.63297852 11.65915039 -3.63696289 10.39477539 C-3.63567383 9.22946289 -3.63438477 8.06415039 -3.63305664 6.86352539 C-3.63192871 5.78586914 -3.63080078 4.70821289 -3.62963867 3.59790039 C-3.45482772 0.24153021 -3.35976473 0.15255254 0 0 Z " fill="#596E7F" transform="translate(21.500244140625,89.886474609375)"/>
<path d="M0 0 C1.084021 0.00523682 2.16804199 0.01047363 3.28491211 0.01586914 C5.03964844 0.02070312 5.03964844 0.02070312 6.82983398 0.02563477 C8.67738281 0.03820313 8.67738281 0.03820313 10.56225586 0.05102539 C12.41560547 0.05779297 12.41560547 0.05779297 14.30639648 0.06469727 C17.37089703 0.07652931 20.43530307 0.09301366 23.49975586 0.11352539 C23.82975586 0.77352539 24.15975586 1.43352539 24.49975586 2.11352539 C23.50975586 2.77352539 22.51975586 3.43352539 21.49975586 4.11352539 C20.99273069 6.23459334 20.99273069 6.23459334 20.98803711 8.68383789 C20.95258789 9.57973633 20.91713867 10.47563477 20.88061523 11.39868164 C20.85805664 12.33583008 20.83549805 13.27297852 20.81225586 14.23852539 C20.7780957 15.1834082 20.74393555 16.12829102 20.70874023 17.10180664 C20.62611473 19.43892792 20.55701598 21.7756673 20.49975586 24.11352539 C19.90960693 24.12810791 19.31945801 24.14269043 18.71142578 24.15771484 C16.03604356 24.23221383 13.36190694 24.32886534 10.68725586 24.42602539 C9.29410156 24.45986328 9.29410156 24.45986328 7.87280273 24.49438477 C6.98012695 24.52983398 6.08745117 24.5652832 5.16772461 24.60180664 C4.34554443 24.62799072 3.52336426 24.6541748 2.67626953 24.68115234 C0.07369054 25.19816495 -0.83935131 26.09555234 -2.50024414 28.11352539 C-4.27474008 26.33902945 -3.63054486 23.76335278 -3.63305664 21.36352539 C-3.6343457 20.19821289 -3.63563477 19.03290039 -3.63696289 17.83227539 C-3.6330957 16.60508789 -3.62922852 15.37790039 -3.62524414 14.11352539 C-3.62911133 12.88633789 -3.63297852 11.65915039 -3.63696289 10.39477539 C-3.63567383 9.22946289 -3.63438477 8.06415039 -3.63305664 6.86352539 C-3.63192871 5.78586914 -3.63080078 4.70821289 -3.62963867 3.59790039 C-3.45482772 0.24153021 -3.35976473 0.15255254 0 0 Z " fill="#576D7E" transform="translate(53.500244140625,57.886474609375)"/>
<path d="M0 0 C1.084021 0.00523682 2.16804199 0.01047363 3.28491211 0.01586914 C5.03964844 0.02070312 5.03964844 0.02070312 6.82983398 0.02563477 C8.67738281 0.03820313 8.67738281 0.03820313 10.56225586 0.05102539 C12.41560547 0.05779297 12.41560547 0.05779297 14.30639648 0.06469727 C17.37089703 0.07652931 20.43530307 0.09301366 23.49975586 0.11352539 C23.82975586 0.77352539 24.15975586 1.43352539 24.49975586 2.11352539 C23.50975586 2.77352539 22.51975586 3.43352539 21.49975586 4.11352539 C20.99273069 6.23459334 20.99273069 6.23459334 20.98803711 8.68383789 C20.95258789 9.57973633 20.91713867 10.47563477 20.88061523 11.39868164 C20.85805664 12.33583008 20.83549805 13.27297852 20.81225586 14.23852539 C20.7780957 15.1834082 20.74393555 16.12829102 20.70874023 17.10180664 C20.62611473 19.43892792 20.55701598 21.7756673 20.49975586 24.11352539 C19.90960693 24.12810791 19.31945801 24.14269043 18.71142578 24.15771484 C16.03604356 24.23221383 13.36190694 24.32886534 10.68725586 24.42602539 C9.29410156 24.45986328 9.29410156 24.45986328 7.87280273 24.49438477 C6.98012695 24.52983398 6.08745117 24.5652832 5.16772461 24.60180664 C4.34554443 24.62799072 3.52336426 24.6541748 2.67626953 24.68115234 C0.07369054 25.19816495 -0.83935131 26.09555234 -2.50024414 28.11352539 C-4.27474008 26.33902945 -3.63054486 23.76335278 -3.63305664 21.36352539 C-3.6343457 20.19821289 -3.63563477 19.03290039 -3.63696289 17.83227539 C-3.6330957 16.60508789 -3.62922852 15.37790039 -3.62524414 14.11352539 C-3.62911133 12.88633789 -3.63297852 11.65915039 -3.63696289 10.39477539 C-3.63567383 9.22946289 -3.63438477 8.06415039 -3.63305664 6.86352539 C-3.63192871 5.78586914 -3.63080078 4.70821289 -3.62963867 3.59790039 C-3.45482772 0.24153021 -3.35976473 0.15255254 0 0 Z " fill="#576D7E" transform="translate(21.500244140625,57.886474609375)"/>
<path d="M0 0 C30.36 0 60.72 0 92 0 C92 1.65 92 3.3 92 5 C61.64 5 31.28 5 0 5 C0 3.35 0 1.7 0 0 Z " fill="#3CB44A" transform="translate(18,10)"/>
<path d="M0 0 C30.36 0 60.72 0 92 0 C91.34 1.32 90.68 2.64 90 4 C60.96 4 31.92 4 2 4 C1.34 2.68 0.68 1.36 0 0 Z " fill="#42586F" transform="translate(18,0)"/>
<path d="M0 0 C0.76183594 -0.00773437 1.52367188 -0.01546875 2.30859375 -0.0234375 C5.32111914 0.50910598 6.53241212 1.0451676 8.5625 3.375 C8.96951968 6.34085667 9.12208396 8.85564604 9.0625 11.8125 C9.07796875 12.57626953 9.0934375 13.34003906 9.109375 14.12695312 C9.08370515 17.81378547 8.96488517 19.79797787 6.81640625 22.87890625 C4.29900065 24.54990511 2.99618544 24.9155575 0 24.875 C-0.76441406 24.8853125 -1.52882813 24.895625 -2.31640625 24.90625 C-4.4375 24.375 -4.4375 24.375 -6.19140625 22.87890625 C-8.02086018 19.20279349 -7.87401887 15.8624925 -7.8125 11.8125 C-7.82410156 11.04486328 -7.83570312 10.27722656 -7.84765625 9.48632812 C-7.81889608 3.98834229 -7.81889608 3.98834229 -6.19140625 1.37109375 C-3.99135236 0.12161994 -2.52530192 -0.02555112 0 0 Z " fill="#129448" transform="translate(93.4375,19.625)"/>
<path d="M0 0 C0.02886537 4.31248609 0.04675255 8.62494762 0.0625 12.9375 C0.07087891 14.16919922 0.07925781 15.40089844 0.08789062 16.66992188 C0.09272461 18.4246582 0.09272461 18.4246582 0.09765625 20.21484375 C0.10551147 21.84087524 0.10551147 21.84087524 0.11352539 23.49975586 C0 26 0 26 -1 27 C-2.92667507 27.08748207 -4.85651861 27.10697334 -6.78515625 27.09765625 C-7.95498047 27.09443359 -9.12480469 27.09121094 -10.33007812 27.08789062 C-12.17762695 27.07532227 -12.17762695 27.07532227 -14.0625 27.0625 C-15.91584961 27.05573242 -15.91584961 27.05573242 -17.80664062 27.04882812 C-20.87114117 27.03699608 -23.93554721 27.02051173 -27 27 C-25.79174805 25.02441406 -25.79174805 25.02441406 -24 23 C-21.82348633 22.54589844 -21.82348633 22.54589844 -19.33203125 22.609375 C-18.43935547 22.62226562 -17.54667969 22.63515625 -16.62695312 22.6484375 C-15.69818359 22.68195313 -14.76941406 22.71546875 -13.8125 22.75 C-12.87212891 22.76804687 -11.93175781 22.78609375 -10.96289062 22.8046875 C-8.64090111 22.8518345 -6.3209631 22.91761769 -4 23 C-4.01571045 22.40985107 -4.0314209 21.81970215 -4.04760742 21.21166992 C-4.10997939 18.53704414 -4.14899657 15.86257136 -4.1875 13.1875 C-4.21263672 12.25873047 -4.23777344 11.32996094 -4.26367188 10.37304688 C-4.27333984 9.48037109 -4.28300781 8.58769531 -4.29296875 7.66796875 C-4.3086792 6.84578857 -4.32438965 6.0236084 -4.34057617 5.17651367 C-3.97439979 2.83639719 -2.79303195 0 0 0 Z " fill="#99B5CC" transform="translate(110,91)"/>
<path d="M0 0 C0.66 0 1.32 0 2 0 C2 8.58 2 17.16 2 26 C-6.58 26 -15.16 26 -24 26 C-23.34 24.68 -22.68 23.36 -22 22 C-15.4 22 -8.8 22 -2 22 C-2.07907703 15.50788924 -2.07907703 15.50788924 -2.18017578 9.01611328 C-2.1851709 8.20899902 -2.19016602 7.40188477 -2.1953125 6.5703125 C-2.20578613 5.74289551 -2.21625977 4.91547852 -2.22705078 4.06298828 C-2 2 -2 2 0 0 Z " fill="#3F556B" transform="translate(76,92)"/>
<path d="M0 0 C0.66 0 1.32 0 2 0 C2 8.58 2 17.16 2 26 C-6.58 26 -15.16 26 -24 26 C-23.34 24.68 -22.68 23.36 -22 22 C-15.4 22 -8.8 22 -2 22 C-2.07907703 15.50788924 -2.07907703 15.50788924 -2.18017578 9.01611328 C-2.1851709 8.20899902 -2.19016602 7.40188477 -2.1953125 6.5703125 C-2.20578613 5.74289551 -2.21625977 4.91547852 -2.22705078 4.06298828 C-2 2 -2 2 0 0 Z " fill="#3F556B" transform="translate(44,92)"/>
<path d="M0 0 C0.66 0 1.32 0 2 0 C2 8.58 2 17.16 2 26 C-6.58 26 -15.16 26 -24 26 C-23.34 24.68 -22.68 23.36 -22 22 C-15.4 22 -8.8 22 -2 22 C-2.07907703 15.50788924 -2.07907703 15.50788924 -2.18017578 9.01611328 C-2.1851709 8.20899902 -2.19016602 7.40188477 -2.1953125 6.5703125 C-2.20578613 5.74289551 -2.21625977 4.91547852 -2.22705078 4.06298828 C-2 2 -2 2 0 0 Z " fill="#3F556B" transform="translate(76,60)"/>
<path d="M0 0 C0.66 0 1.32 0 2 0 C2 8.58 2 17.16 2 26 C-6.58 26 -15.16 26 -24 26 C-23.34 24.68 -22.68 23.36 -22 22 C-15.4 22 -8.8 22 -2 22 C-2.07907703 15.50788924 -2.07907703 15.50788924 -2.18017578 9.01611328 C-2.1851709 8.20899902 -2.19016602 7.40188477 -2.1953125 6.5703125 C-2.20578613 5.74289551 -2.21625977 4.91547852 -2.22705078 4.06298828 C-2 2 -2 2 0 0 Z " fill="#3F556B" transform="translate(44,60)"/>
<path d="M0 0 C0.66 0 1.32 0 2 0 C2.02886751 4.14581887 2.04675327 8.29161216 2.0625 12.4375 C2.07087891 13.62150391 2.07925781 14.80550781 2.08789062 16.02539062 C2.09272461 17.71245117 2.09272461 17.71245117 2.09765625 19.43359375 C2.10551147 20.99678345 2.10551147 20.99678345 2.11352539 22.59155273 C2 25 2 25 1 26 C-0.85369611 26.08737645 -2.71067541 26.10698153 -4.56640625 26.09765625 C-5.69111328 26.09443359 -6.81582031 26.09121094 -7.97460938 26.08789062 C-9.15861328 26.07951172 -10.34261719 26.07113281 -11.5625 26.0625 C-12.75037109 26.05798828 -13.93824219 26.05347656 -15.16210938 26.04882812 C-18.10812226 26.03699675 -21.05403681 26.02051287 -24 26 C-23.34 24.68 -22.68 23.36 -22 22 C-15.4 22 -8.8 22 -2 22 C-2.07907703 15.50788924 -2.07907703 15.50788924 -2.18017578 9.01611328 C-2.1851709 8.20899902 -2.19016602 7.40188477 -2.1953125 6.5703125 C-2.20578613 5.74289551 -2.21625977 4.91547852 -2.22705078 4.06298828 C-2 2 -2 2 0 0 Z " fill="#C61C31" transform="translate(108,60)"/>
<path d="M0 0 C2.375 1.3125 2.375 1.3125 4 3 C4 3.99 4 4.98 4 6 C3.31292969 5.89300781 2.62585938 5.78601563 1.91796875 5.67578125 C1.01691406 5.55589844 0.11585937 5.43601562 -0.8125 5.3125 C-1.70582031 5.18488281 -2.59914063 5.05726562 -3.51953125 4.92578125 C-6.03439525 4.77517006 -6.03439525 4.77517006 -7.84375 6.28125 C-9.3316392 8.09930439 -9.3316392 8.09930439 -8.6875 11.1875 C-8.460625 12.115625 -8.23375 13.04375 -8 14 C-3.66726186 14.92844389 -0.33273814 14.92844389 4 14 C3.6875 15.875 3.6875 15.875 3 18 C-0.72762066 20.48508044 -2.47388312 20.2667146 -6.76953125 19.6640625 C-10.78368823 18.46895447 -11.92272489 16.61847923 -14 13 C-14.625 9.4375 -14.625 9.4375 -14 6 C-9.8921324 0.89292136 -6.49014127 -0.52980745 0 0 Z " fill="#E1D7DA" transform="translate(100,62)"/>
<path d="M0 0 C3 0.125 3 0.125 4 1.125 C4.09909302 3.45660055 4.12970504 5.79129942 4.125 8.125 C4.12757812 9.40375 4.13015625 10.6825 4.1328125 12 C4 15.125 4 15.125 3 16.125 C0 16.25 0 16.25 -3 16.125 C-4 15.125 -4 15.125 -4.1328125 12 C-4.13023438 10.72125 -4.12765625 9.4425 -4.125 8.125 C-4.12757812 6.84625 -4.13015625 5.5675 -4.1328125 4.25 C-3.95919858 0.16496661 -3.95919858 0.16496661 0 0 Z " fill="#87C662" transform="translate(94,23.875)"/>
<path d="M0 0 C0.99 0.33 1.98 0.66 3 1 C3 2.65 3 4.3 3 6 C4.65 6 6.3 6 8 6 C8 7.32 8 8.64 8 10 C6.35 10 4.7 10 3 10 C3 11.65 3 13.3 3 15 C1.68 15 0.36 15 -1 15 C-1 13.35 -1 11.7 -1 10 C-2.65 10 -4.3 10 -6 10 C-6 8.68 -6 7.36 -6 6 C-4.35 6 -2.7 6 -1 6 C-1.020625 5.195625 -1.04125 4.39125 -1.0625 3.5625 C-1 1 -1 1 0 0 Z " fill="#DDE1E3" transform="translate(31,64)"/>
<path d="M0 0 C0.9075 0.37125 1.815 0.7425 2.75 1.125 C5.88097015 2.30359299 5.88097015 2.30359299 8.375 1.125 C8.91125 0.75375 9.4475 0.3825 10 0 C10 4 10 8 10 12 C9.0925 11.62875 8.185 11.2575 7.25 10.875 C4.11902985 9.69640701 4.11902985 9.69640701 1.625 10.875 C1.08875 11.24625 0.5525 11.6175 0 12 C0 8 0 4 0 0 Z " fill="#DADEE1" transform="translate(27,98)"/>
<path d="M0 0 C4.62 0 9.24 0 14 0 C14 1.32 14 2.64 14 4 C9.38 4 4.76 4 0 4 C0 2.68 0 1.36 0 0 Z " fill="#384C5F" transform="translate(89,106)"/>
<path d="M0 0 C4.62 0 9.24 0 14 0 C14 1.32 14 2.64 14 4 C9.38 4 4.76 4 0 4 C0 2.68 0 1.36 0 0 Z " fill="#DEE1E4" transform="translate(57,102)"/>
<path d="M0 0 C4.62 0 9.24 0 14 0 C14 1.32 14 2.64 14 4 C9.38 4 4.76 4 0 4 C0 2.68 0 1.36 0 0 Z " fill="#384C5F" transform="translate(89,98)"/>
<path d="M0 0 C4.62 0 9.24 0 14 0 C14 1.32 14 2.64 14 4 C9.38 4 4.76 4 0 4 C0 2.68 0 1.36 0 0 Z " fill="#DEE1E4" transform="translate(57,70)"/>
</svg>
